{"title":"The Walking Dead S05e01-04 [XviD- italian english Ac3 - Sub ita ","uid":11423279,"size":2581184303,"categoryP":"video","categoryS":"tv_shows","magnet":"?xt=urn:btih:459e0036d5a197bf293b9009e510ba255eb03300&amp;dn=The+Walking+Dead+S05e01-04+%5BXviD-+italian+english+Ac3+-+Sub+ita+&amp;tr=udp%3A%2F%2Ftracker.openbittorrent.com%3A80&amp;tr=udp%3A%2F%2Fopen.demonii.com%3A1337&amp;tr=udp%3A%2F%2Ftracker.coppersurfer.tk%3A6969&amp;tr=udp%3A%2F%2Fexodus.desync.com%3A6969","seeders":4,"leechers":0,"uploader":"robbyrs4","files":15,"time":1415638077,"description":"The Walking Dead S05e01-04 [XviD- italian english Ac3 - Sub ita Eng] MIRCrew\n\n\n[center][font=impact]The Walking Dead stagione 5\n\n[/font][/size]\n\n1 \tNo Sanctuary \t                Preda e cacciatore \t\n2 \tStrangers \t                        Sconosciuti \t\n3 \tFour Walls and a Roof \tUn tetto e quattro mura \t\n4 \tSlabtown                           Il prezzo della salvezza \n\n[IMG]http://i.imgur.com/Qqj7128.jpg[/img]\n &lt;a href=&quot;\nhttp://s19.postimg.org/5wfbi64ib/vlcsnap_2014_11_10_16h30m11s112.png[/img]&quot; rel=&quot;nofollow&quot; target=&quot;_NEW&quot;&gt;\nhttp://s19.postimg.org/5wfbi64ib/vlcsnap_2014_11_10_16h30m11s112.png[/img]&lt;/a&gt; &lt;a href=&quot;\nhttp://s19.postimg.org/6xfk7alhv/vlcsnap_2014_11_10_16h30m32s92.png[/img]&quot; rel=&quot;nofollow&quot; target=&quot;_NEW&quot;&gt;\nhttp://s19.postimg.org/6xfk7alhv/vlcsnap_2014_11_10_16h30m32s92.png[/img]&lt;/a&gt; &lt;a href=&quot;\nhttp://s19.postimg.org/ddoixdu1f/vlcsnap_2014_11_10_16h30m51s26.png[/img]&quot; rel=&quot;nofollow&quot; target=&quot;_NEW&quot;&gt;\nhttp://s19.postimg.org/ddoixdu1f/vlcsnap_2014_11_10_16h30m51s26.png[/img]&lt;/a&gt;\n\n[spoiler]General\nComplete name                            : A:u torrentfattiThe Walking Dead.5X01-04..ita.eng.Ac3.sub.ita.MIRCrewThe Walking Dead.5X01 - Preda E Cacciatori - No Sanctuary.ita.eng.Ac3.sub.ita.MIRCrewThe Walking Dead.5X01 - Preda E Cacciatori.ita.eng.Ac3.sub.ita.MIRCrew.avi\nFormat                                   : AVI\nFormat/Info                              : Audio Video Interleave\nFile size                                : 645 MiB\nDuration                                 : 41mn 55s\nOverall bit rate                         : 2 149 Kbps\nWriting application                      : VirtualDubMod 1.5.4.1 (build 2178/release)\nWriting library                          : VirtualDubMod build 2178/release\n\nVideo\nID                                       : 0\nFormat                                   : MPEG-4 Visual\nFormat profile                           : Simple@L3\nFormat settings, BVOP                    : No\nFormat settings, QPel                    : No\nFormat settings, GMC                     : No warppoints\nFormat settings, Matrix                  : Default (H.263)\nCodec ID                                 : XVID\nCodec ID/Hint                            : XviD\nDuration                                 : 41mn 55s\nBit rate                                 : 1 495 Kbps\nWidth                                    : 718 pixels\nHeight                                   : 404 pixels\nDisplay aspect ratio                     : 16:9\nFrame rate                               : 25.000 fps\nColor space                              : YUV\nChroma subsampling                       : 4:2:0\nBit depth                                : 8 bits\nScan type                                : Progressive\nCompression mode                         : Lossy\nBits/(Pixel*Frame)                       : 0.206\nStream size                              : 448 MiB (70%)\nWriting library                          : XviD 65\n\nAudio #1\nID                                       : 1\nFormat                                   : AC-3\nFormat/Info                              : Audio Coding 3\nMode extension                           : CM (complete main)\nCodec ID                                 : 2000\nDuration                                 : 41mn 55s\nBit rate mode                            : Constant\nBit rate                                 : 256 Kbps\nChannel(s)                               : 2 channels\nChannel positions                        : Front: L R\nSampling rate                            : 48.0 KHz\nBit depth                                : 16 bits\nCompression mode                         : Lossy\nStream size                              : 76.8 MiB (12%)\nAlignment                                : Split accross interleaves\nInterleave, duration                     : 40 ms (1.00 video frame)\nInterleave, preload duration             : 500 ms\n\nAudio #2\nID                                       : 2\nFormat                                   : AC-3\nFormat/Info                              : Audio Coding 3\nMode extension                           : CM (complete main)\nCodec ID                                 : 2000\nDuration                                 : 41mn 55s\nBit rate mode                            : Constant\nBit rate                                 : 384 Kbps\nChannel(s)                               : 6 channels\nChannel positions                        : Front: L C R, Side: L R, LFE\nSampling rate                            : 48.0 KHz\nBit depth                                : 16 bits\nCompression mode                         : Lossy\nStream size                              : 115 MiB (18%)\nAlignment                                : Split accross interleaves\nInterleave, duration                     : 40 ms (1.00 video frame)\nInterleave, preload duration             : 500 ms\n\n\n[/spoiler]","torrent":{"xt":"urn:btih:459e0036d5a197bf293b9009e510ba255eb03300","amp;dn":"The+Walking+Dead+S05e01-04+%5BXviD-+italian+english+Ac3+-+Sub+ita+","amp;tr":["udp%3A%2F%2Ftracker.openbittorrent.com%3A80","udp%3A%2F%2Fopen.demonii.com%3A1337","udp%3A%2F%2Ftracker.coppersurfer.tk%3A6969","udp%3A%2F%2Fexodus.desync.com%3A6969"],"infoHash":"459e0036d5a197bf293b9009e510ba255eb03300","infoHashBuffer":{"type":"Buffer","data":[69,158,0,54,213,161,151,191,41,59,144,9,229,16,186,37,94,176,51,0]},"announce":[],"urlList":[]}}